<mxfile host="app.diagrams.net" agent="Mozilla/5.0 (Windows NT 10.0; Win64; x64) AppleWebKit/537.36 (KHTML, like Gecko) Chrome/128.0.0.0 Safari/537.36" version="24.7.16">
  <diagram name="Página-1" id="oD2jVdTmLFTgkb-JgAFI">
    <mxGraphModel dx="1912" dy="995" grid="1" gridSize="10" guides="1" tooltips="1" connect="1" arrows="1" fold="1" page="1" pageScale="1" pageWidth="827" pageHeight="1169" math="0" shadow="0">
      <root>
        <mxCell id="0" />
        <mxCell id="1" parent="0" />
        <mxCell id="BYQ6nLd5p58p7Mj93vRJ-2" value="INICIO" style="rounded=1;whiteSpace=wrap;html=1;" vertex="1" parent="1">
          <mxGeometry x="125" y="20" width="120" height="60" as="geometry" />
        </mxCell>
        <mxCell id="BYQ6nLd5p58p7Mj93vRJ-3" value="INICIO DE SESIÓN" style="whiteSpace=wrap;html=1;aspect=fixed;" vertex="1" parent="1">
          <mxGeometry x="140" y="120" width="90" height="90" as="geometry" />
        </mxCell>
        <mxCell id="BYQ6nLd5p58p7Mj93vRJ-4" value="" style="endArrow=none;html=1;rounded=0;entryX=0.5;entryY=1;entryDx=0;entryDy=0;exitX=0.5;exitY=0;exitDx=0;exitDy=0;" edge="1" parent="1" source="BYQ6nLd5p58p7Mj93vRJ-3" target="BYQ6nLd5p58p7Mj93vRJ-2">
          <mxGeometry width="50" height="50" relative="1" as="geometry">
            <mxPoint x="35" y="120" as="sourcePoint" />
            <mxPoint x="85" y="70" as="targetPoint" />
          </mxGeometry>
        </mxCell>
        <mxCell id="BYQ6nLd5p58p7Mj93vRJ-5" value="Validar Credenciales" style="rhombus;whiteSpace=wrap;html=1;" vertex="1" parent="1">
          <mxGeometry x="130" y="275" width="110" height="110" as="geometry" />
        </mxCell>
        <mxCell id="BYQ6nLd5p58p7Mj93vRJ-6" value="" style="endArrow=none;html=1;rounded=0;entryX=0.5;entryY=1;entryDx=0;entryDy=0;exitX=0.5;exitY=0;exitDx=0;exitDy=0;" edge="1" parent="1" source="BYQ6nLd5p58p7Mj93vRJ-5" target="BYQ6nLd5p58p7Mj93vRJ-3">
          <mxGeometry width="50" height="50" relative="1" as="geometry">
            <mxPoint x="40" y="260" as="sourcePoint" />
            <mxPoint x="90" y="210" as="targetPoint" />
          </mxGeometry>
        </mxCell>
        <mxCell id="BYQ6nLd5p58p7Mj93vRJ-7" value="Menu Principal" style="rounded=0;whiteSpace=wrap;html=1;" vertex="1" parent="1">
          <mxGeometry x="300" y="300" width="120" height="60" as="geometry" />
        </mxCell>
        <mxCell id="BYQ6nLd5p58p7Mj93vRJ-8" value="" style="endArrow=none;html=1;rounded=0;exitX=1;exitY=0.5;exitDx=0;exitDy=0;entryX=0;entryY=0.5;entryDx=0;entryDy=0;" edge="1" parent="1" source="BYQ6nLd5p58p7Mj93vRJ-5" target="BYQ6nLd5p58p7Mj93vRJ-7">
          <mxGeometry width="50" height="50" relative="1" as="geometry">
            <mxPoint x="390" y="410" as="sourcePoint" />
            <mxPoint x="440" y="360" as="targetPoint" />
          </mxGeometry>
        </mxCell>
        <mxCell id="BYQ6nLd5p58p7Mj93vRJ-9" value="" style="endArrow=none;html=1;rounded=0;entryX=0;entryY=0.5;entryDx=0;entryDy=0;entryPerimeter=0;exitX=-0.011;exitY=0.433;exitDx=0;exitDy=0;exitPerimeter=0;" edge="1" parent="1" source="BYQ6nLd5p58p7Mj93vRJ-3" target="BYQ6nLd5p58p7Mj93vRJ-5">
          <mxGeometry width="50" height="50" relative="1" as="geometry">
            <mxPoint x="40" y="350" as="sourcePoint" />
            <mxPoint x="90" y="300" as="targetPoint" />
            <Array as="points">
              <mxPoint x="40" y="160" />
              <mxPoint x="40" y="330" />
            </Array>
          </mxGeometry>
        </mxCell>
        <mxCell id="BYQ6nLd5p58p7Mj93vRJ-10" value="Gestionar Correo" style="rounded=0;whiteSpace=wrap;html=1;" vertex="1" parent="1">
          <mxGeometry x="490" y="210" width="120" height="60" as="geometry" />
        </mxCell>
        <mxCell id="BYQ6nLd5p58p7Mj93vRJ-11" value="" style="endArrow=none;html=1;rounded=0;entryX=0;entryY=0.5;entryDx=0;entryDy=0;exitX=1;exitY=0.5;exitDx=0;exitDy=0;" edge="1" parent="1" source="BYQ6nLd5p58p7Mj93vRJ-7" target="BYQ6nLd5p58p7Mj93vRJ-10">
          <mxGeometry width="50" height="50" relative="1" as="geometry">
            <mxPoint x="390" y="410" as="sourcePoint" />
            <mxPoint x="440" y="360" as="targetPoint" />
          </mxGeometry>
        </mxCell>
        <mxCell id="BYQ6nLd5p58p7Mj93vRJ-12" value="1.- Redactar correo&lt;div&gt;2.- Bandeja de Entrada&lt;/div&gt;&lt;div&gt;3.- Bandeja de Salida&lt;/div&gt;&lt;div&gt;4.- Eliminar Correo&lt;/div&gt;" style="text;html=1;align=center;verticalAlign=middle;whiteSpace=wrap;rounded=0;" vertex="1" parent="1">
          <mxGeometry x="370" y="95" width="140" height="70" as="geometry" />
        </mxCell>
        <mxCell id="BYQ6nLd5p58p7Mj93vRJ-13" value="" style="endArrow=none;dashed=1;html=1;rounded=0;entryX=0.55;entryY=0.986;entryDx=0;entryDy=0;entryPerimeter=0;" edge="1" parent="1" source="BYQ6nLd5p58p7Mj93vRJ-10" target="BYQ6nLd5p58p7Mj93vRJ-12">
          <mxGeometry width="50" height="50" relative="1" as="geometry">
            <mxPoint x="390" y="410" as="sourcePoint" />
            <mxPoint x="440" y="360" as="targetPoint" />
          </mxGeometry>
        </mxCell>
        <mxCell id="BYQ6nLd5p58p7Mj93vRJ-16" value="" style="group" vertex="1" connectable="0" parent="1">
          <mxGeometry x="690" y="180" width="100" height="150" as="geometry" />
        </mxCell>
        <mxCell id="BYQ6nLd5p58p7Mj93vRJ-15" value="" style="verticalLabelPosition=bottom;sketch=0;aspect=fixed;html=1;verticalAlign=top;strokeColor=none;align=center;outlineConnect=0;shape=mxgraph.citrix.smtp_server;" vertex="1" parent="BYQ6nLd5p58p7Mj93vRJ-16">
          <mxGeometry width="96.77419354838706" height="117.15169766592464" as="geometry" />
        </mxCell>
        <mxCell id="BYQ6nLd5p58p7Mj93vRJ-14" value="" style="shape=image;html=1;verticalLabelPosition=bottom;verticalAlign=top;imageAspect=1;aspect=fixed;image=img/clipart/Gear_128x128.png" vertex="1" parent="BYQ6nLd5p58p7Mj93vRJ-16">
          <mxGeometry x="5.696788435519474" y="52.94117647058823" width="35.83463693310637" height="42.03678563306708" as="geometry" />
        </mxCell>
        <mxCell id="BYQ6nLd5p58p7Mj93vRJ-17" value="" style="endArrow=none;html=1;rounded=0;exitX=1;exitY=0.5;exitDx=0;exitDy=0;" edge="1" parent="1" source="BYQ6nLd5p58p7Mj93vRJ-10" target="BYQ6nLd5p58p7Mj93vRJ-15">
          <mxGeometry width="50" height="50" relative="1" as="geometry">
            <mxPoint x="390" y="410" as="sourcePoint" />
            <mxPoint x="440" y="360" as="targetPoint" />
          </mxGeometry>
        </mxCell>
        <mxCell id="BYQ6nLd5p58p7Mj93vRJ-18" value="Reportes de Gestión de Correos" style="rounded=0;whiteSpace=wrap;html=1;" vertex="1" parent="1">
          <mxGeometry x="414" y="420" width="120" height="60" as="geometry" />
        </mxCell>
        <mxCell id="BYQ6nLd5p58p7Mj93vRJ-19" value="Mantenimiento de Usuarios" style="rounded=0;whiteSpace=wrap;html=1;" vertex="1" parent="1">
          <mxGeometry x="210" y="485" width="120" height="60" as="geometry" />
        </mxCell>
        <mxCell id="BYQ6nLd5p58p7Mj93vRJ-20" value="" style="endArrow=none;html=1;rounded=0;entryX=1;entryY=1;entryDx=0;entryDy=0;exitX=0.5;exitY=0;exitDx=0;exitDy=0;" edge="1" parent="1" source="BYQ6nLd5p58p7Mj93vRJ-18" target="BYQ6nLd5p58p7Mj93vRJ-7">
          <mxGeometry width="50" height="50" relative="1" as="geometry">
            <mxPoint x="390" y="410" as="sourcePoint" />
            <mxPoint x="440" y="360" as="targetPoint" />
          </mxGeometry>
        </mxCell>
        <mxCell id="BYQ6nLd5p58p7Mj93vRJ-21" value="" style="endArrow=none;html=1;rounded=0;exitX=0.5;exitY=0;exitDx=0;exitDy=0;entryX=0;entryY=1;entryDx=0;entryDy=0;" edge="1" parent="1" source="BYQ6nLd5p58p7Mj93vRJ-19" target="BYQ6nLd5p58p7Mj93vRJ-7">
          <mxGeometry width="50" height="50" relative="1" as="geometry">
            <mxPoint x="390" y="410" as="sourcePoint" />
            <mxPoint x="440" y="360" as="targetPoint" />
          </mxGeometry>
        </mxCell>
        <mxCell id="BYQ6nLd5p58p7Mj93vRJ-24" value="" style="image;aspect=fixed;perimeter=ellipsePerimeter;html=1;align=center;shadow=0;dashed=0;spacingTop=3;image=img/lib/active_directory/database_server.svg;" vertex="1" parent="1">
          <mxGeometry x="670" y="430" width="106.6" height="130" as="geometry" />
        </mxCell>
        <mxCell id="BYQ6nLd5p58p7Mj93vRJ-25" value="" style="endArrow=none;html=1;rounded=0;entryX=1;entryY=0.5;entryDx=0;entryDy=0;" edge="1" parent="1" source="BYQ6nLd5p58p7Mj93vRJ-24" target="BYQ6nLd5p58p7Mj93vRJ-18">
          <mxGeometry width="50" height="50" relative="1" as="geometry">
            <mxPoint x="390" y="410" as="sourcePoint" />
            <mxPoint x="440" y="360" as="targetPoint" />
          </mxGeometry>
        </mxCell>
        <mxCell id="BYQ6nLd5p58p7Mj93vRJ-26" value="" style="endArrow=none;html=1;rounded=0;exitX=1;exitY=0.5;exitDx=0;exitDy=0;entryX=0;entryY=0.5;entryDx=0;entryDy=0;" edge="1" parent="1" source="BYQ6nLd5p58p7Mj93vRJ-19" target="BYQ6nLd5p58p7Mj93vRJ-24">
          <mxGeometry width="50" height="50" relative="1" as="geometry">
            <mxPoint x="390" y="410" as="sourcePoint" />
            <mxPoint x="440" y="360" as="targetPoint" />
          </mxGeometry>
        </mxCell>
        <mxCell id="BYQ6nLd5p58p7Mj93vRJ-28" value="" style="endArrow=none;html=1;rounded=0;exitX=1;exitY=0.5;exitDx=0;exitDy=0;" edge="1" parent="1" source="BYQ6nLd5p58p7Mj93vRJ-3" target="BYQ6nLd5p58p7Mj93vRJ-24">
          <mxGeometry width="50" height="50" relative="1" as="geometry">
            <mxPoint x="390" y="410" as="sourcePoint" />
            <mxPoint x="440" y="360" as="targetPoint" />
            <Array as="points">
              <mxPoint x="300" y="10" />
              <mxPoint x="810" y="10" />
              <mxPoint x="810" y="430" />
            </Array>
          </mxGeometry>
        </mxCell>
        <mxCell id="BYQ6nLd5p58p7Mj93vRJ-29" value="SERVIDOR DE BASE DE DATOS&lt;div&gt;1.- WINDOWS SERVER&lt;/div&gt;&lt;div&gt;2.- SQL SERVER EXPRESS&lt;/div&gt;" style="text;html=1;align=center;verticalAlign=middle;whiteSpace=wrap;rounded=0;" vertex="1" parent="1">
          <mxGeometry x="590" y="620" width="194" height="100" as="geometry" />
        </mxCell>
        <mxCell id="BYQ6nLd5p58p7Mj93vRJ-30" value="Servicio SMTP&lt;div&gt;(Correo)&lt;/div&gt;&lt;div&gt;GMAIL&lt;/div&gt;" style="text;html=1;align=center;verticalAlign=middle;whiteSpace=wrap;rounded=0;" vertex="1" parent="1">
          <mxGeometry x="643.5" y="100" width="87" height="60" as="geometry" />
        </mxCell>
        <mxCell id="BYQ6nLd5p58p7Mj93vRJ-31" value="" style="endArrow=none;dashed=1;html=1;rounded=0;entryX=0.626;entryY=1.017;entryDx=0;entryDy=0;entryPerimeter=0;" edge="1" parent="1" source="BYQ6nLd5p58p7Mj93vRJ-15" target="BYQ6nLd5p58p7Mj93vRJ-30">
          <mxGeometry width="50" height="50" relative="1" as="geometry">
            <mxPoint x="390" y="410" as="sourcePoint" />
            <mxPoint x="440" y="360" as="targetPoint" />
          </mxGeometry>
        </mxCell>
        <mxCell id="BYQ6nLd5p58p7Mj93vRJ-32" value="" style="endArrow=none;dashed=1;html=1;rounded=0;entryX=0.25;entryY=1;entryDx=0;entryDy=0;" edge="1" parent="1" source="BYQ6nLd5p58p7Mj93vRJ-29" target="BYQ6nLd5p58p7Mj93vRJ-24">
          <mxGeometry width="50" height="50" relative="1" as="geometry">
            <mxPoint x="534" y="620" as="sourcePoint" />
            <mxPoint x="584" y="570" as="targetPoint" />
          </mxGeometry>
        </mxCell>
        <mxCell id="BYQ6nLd5p58p7Mj93vRJ-37" value="" style="group" vertex="1" connectable="0" parent="1">
          <mxGeometry x="440" y="570" width="104" height="160" as="geometry" />
        </mxCell>
        <mxCell id="BYQ6nLd5p58p7Mj93vRJ-35" value="" style="image;aspect=fixed;perimeter=ellipsePerimeter;html=1;align=center;shadow=0;dashed=0;spacingTop=3;image=img/lib/active_directory/generic_server.svg;" vertex="1" parent="BYQ6nLd5p58p7Mj93vRJ-37">
          <mxGeometry width="89.6" height="160" as="geometry" />
        </mxCell>
        <mxCell id="BYQ6nLd5p58p7Mj93vRJ-36" value="" style="outlineConnect=0;dashed=0;verticalLabelPosition=bottom;verticalAlign=top;align=center;html=1;shape=mxgraph.aws3.android;fillColor=#8CC64F;gradientColor=none;" vertex="1" parent="BYQ6nLd5p58p7Mj93vRJ-37">
          <mxGeometry x="48" y="70" width="56" height="64" as="geometry" />
        </mxCell>
        <mxCell id="BYQ6nLd5p58p7Mj93vRJ-41" value="" style="endArrow=none;html=1;rounded=0;entryX=0.592;entryY=-0.006;entryDx=0;entryDy=0;entryPerimeter=0;" edge="1" parent="BYQ6nLd5p58p7Mj93vRJ-37" source="BYQ6nLd5p58p7Mj93vRJ-35" target="BYQ6nLd5p58p7Mj93vRJ-35">
          <mxGeometry width="50" height="50" relative="1" as="geometry">
            <mxPoint x="10" y="90" as="sourcePoint" />
            <mxPoint y="-210" as="targetPoint" />
            <Array as="points">
              <mxPoint x="-420" y="90" />
              <mxPoint x="-420" y="-460" />
              <mxPoint x="-100" y="-460" />
              <mxPoint x="150" y="-110" />
            </Array>
          </mxGeometry>
        </mxCell>
        <mxCell id="BYQ6nLd5p58p7Mj93vRJ-38" value="" style="endArrow=none;html=1;rounded=0;entryX=0.75;entryY=1;entryDx=0;entryDy=0;exitX=0.31;exitY=-0.008;exitDx=0;exitDy=0;exitPerimeter=0;" edge="1" parent="1" source="BYQ6nLd5p58p7Mj93vRJ-24" target="BYQ6nLd5p58p7Mj93vRJ-10">
          <mxGeometry width="50" height="50" relative="1" as="geometry">
            <mxPoint x="390" y="410" as="sourcePoint" />
            <mxPoint x="440" y="360" as="targetPoint" />
          </mxGeometry>
        </mxCell>
        <mxCell id="BYQ6nLd5p58p7Mj93vRJ-40" value="&lt;h1 style=&quot;margin-top: 0px;&quot;&gt;Servicio de Correos&lt;/h1&gt;&lt;div&gt;&lt;br&gt;&lt;/div&gt;" style="text;html=1;whiteSpace=wrap;overflow=hidden;rounded=0;" vertex="1" parent="1">
          <mxGeometry x="570" y="55" width="240" height="40" as="geometry" />
        </mxCell>
        <mxCell id="BYQ6nLd5p58p7Mj93vRJ-42" value="&lt;h1 style=&quot;margin-top: 0px;&quot;&gt;Servidor de Aplicaciones&lt;/h1&gt;" style="text;html=1;whiteSpace=wrap;overflow=hidden;rounded=0;" vertex="1" parent="1">
          <mxGeometry x="120" y="670" width="310" height="40" as="geometry" />
        </mxCell>
        <mxCell id="BYQ6nLd5p58p7Mj93vRJ-43" value="Servidor de Aplicacion&lt;div&gt;1.- Windows Server&lt;/div&gt;&lt;div&gt;2.- Node Js&lt;/div&gt;" style="text;html=1;align=center;verticalAlign=middle;whiteSpace=wrap;rounded=0;" vertex="1" parent="1">
          <mxGeometry x="250" y="570" width="147" height="60" as="geometry" />
        </mxCell>
        <mxCell id="BYQ6nLd5p58p7Mj93vRJ-44" value="" style="endArrow=none;dashed=1;html=1;rounded=0;exitX=1;exitY=0.5;exitDx=0;exitDy=0;" edge="1" parent="1" source="BYQ6nLd5p58p7Mj93vRJ-43" target="BYQ6nLd5p58p7Mj93vRJ-35">
          <mxGeometry width="50" height="50" relative="1" as="geometry">
            <mxPoint x="390" y="410" as="sourcePoint" />
            <mxPoint x="440" y="360" as="targetPoint" />
          </mxGeometry>
        </mxCell>
        <mxCell id="BYQ6nLd5p58p7Mj93vRJ-45" value="&lt;h1 style=&quot;margin-top: 0px; font-size: 15px;&quot;&gt;Modelos del Proceso de construcción del Software&lt;/h1&gt;" style="text;html=1;whiteSpace=wrap;overflow=hidden;rounded=0;align=center;fontSize=15;" vertex="1" parent="1">
          <mxGeometry x="50" y="410" width="200" height="50" as="geometry" />
        </mxCell>
      </root>
    </mxGraphModel>
  </diagram>
</mxfile>
